# xmcd
#
# Track frame offsets:
#	150
#	12790
#	31394
#	49103
#	67526
#	81454
#
# Disc length: 1350 seconds
#
# Revision: 1
# Processed by: cddbd v1.5.2PL0 Copyright (c) Steve Scherf et al.
# Submitted via: audiograbber 1.83.01
#
DISCID=3e054406
DTITLE=Tim Dionne - This and that
DYEAR=2006
DGENRE=
TTITLE0=Who Wouldn't Fall For You
TTITLE1=Lie Here In Your Arms
TTITLE2=No Lovin Out Of You
TTITLE3=The Middle Of Nowhere
TTITLE4=Fall A Little Farther
TTITLE5=An Angel In Disguise
EXTD=
EXTT0=
EXTT1=
EXTT2=
EXTT3=
EXTT4=
EXTT5=
PLAYORDER=
